<svg width="25" height="25" viewBox="0 0 25 25" fill="none" xmlns="http://www.w3.org/2000/svg">
<path d="M12.5 21.875C9.87847 21.875 7.66059 21.4714 5.84635 20.6641C4.03212 19.8568 3.125 18.8715 3.125 17.7083V7.29167C3.125 6.14583 4.0408 5.16493 5.8724 4.34896C7.70399 3.53299 9.91319 3.125 12.5 3.125C15.0868 3.125 17.296 3.53299 19.1276 4.34896C20.9592 5.16493 21.875 6.14583 21.875 7.29167V17.7083C21.875 18.8715 20.9679 19.8568 19.1536 20.6641C17.3394 21.4714 15.1215 21.875 12.5 21.875ZM12.5 9.40104C14.0451 9.40104 15.599 9.17969 17.1615 8.73698C18.724 8.29427 19.6007 7.82118 19.7917 7.31771C19.6007 6.81424 18.7283 6.33681 17.1745 5.88542C15.6207 5.43403 14.0625 5.20833 12.5 5.20833C10.9201 5.20833 9.37066 5.42969 7.85156 5.8724C6.33247 6.3151 5.45139 6.79688 5.20833 7.31771C5.45139 7.83854 6.33247 8.31597 7.85156 8.75C9.37066 9.18403 10.9201 9.40104 12.5 9.40104ZM12.5 14.5833C13.2292 14.5833 13.9323 14.5486 14.6094 14.4792C15.2865 14.4097 15.9332 14.3099 16.5495 14.1797C17.1658 14.0495 17.7474 13.8889 18.2943 13.6979C18.8411 13.5069 19.3403 13.2899 19.7917 13.0469V9.92188C19.3403 10.1649 18.8411 10.3819 18.2943 10.5729C17.7474 10.7639 17.1658 10.9245 16.5495 11.0547C15.9332 11.1849 15.2865 11.2847 14.6094 11.3542C13.9323 11.4236 13.2292 11.4583 12.5 11.4583C11.7708 11.4583 11.059 11.4236 10.3646 11.3542C9.67014 11.2847 9.01476 11.1849 8.39844 11.0547C7.78212 10.9245 7.20486 10.7639 6.66667 10.5729C6.12847 10.3819 5.64236 10.1649 5.20833 9.92188V13.0469C5.64236 13.2899 6.12847 13.5069 6.66667 13.6979C7.20486 13.8889 7.78212 14.0495 8.39844 14.1797C9.01476 14.3099 9.67014 14.4097 10.3646 14.4792C11.059 14.5486 11.7708 14.5833 12.5 14.5833ZM12.5 19.7917C13.2986 19.7917 14.1102 19.7309 14.9349 19.6094C15.7595 19.4878 16.5191 19.3273 17.2135 19.1276C17.908 18.928 18.4896 18.7023 18.9583 18.4505C19.4271 18.1988 19.7049 17.9427 19.7917 17.6823V15.1302C19.3403 15.3733 18.8411 15.5903 18.2943 15.7812C17.7474 15.9722 17.1658 16.1328 16.5495 16.263C15.9332 16.3932 15.2865 16.4931 14.6094 16.5625C13.9323 16.6319 13.2292 16.6667 12.5 16.6667C11.7708 16.6667 11.059 16.6319 10.3646 16.5625C9.67014 16.4931 9.01476 16.3932 8.39844 16.263C7.78212 16.1328 7.20486 15.9722 6.66667 15.7812C6.12847 15.5903 5.64236 15.3733 5.20833 15.1302V17.7083C5.29514 17.9688 5.56858 18.2205 6.02865 18.4635C6.48872 18.7066 7.06597 18.928 7.76042 19.1276C8.45486 19.3273 9.21875 19.4878 10.0521 19.6094C10.8854 19.7309 11.7014 19.7917 12.5 19.7917Z" fill="white"/>
</svg>
