<svg width="24" height="24" viewBox="0 0 24 24" fill="none" xmlns="http://www.w3.org/2000/svg">
<path fill-rule="evenodd" clip-rule="evenodd" d="M16.8751 3.75C16.3478 3.74973 15.8278 3.87301 15.3568 4.10994C14.8858 4.34687 14.4768 4.69087 14.1627 5.11437C13.8486 5.53786 13.638 6.02905 13.548 6.54858C13.4579 7.0681 13.4908 7.60149 13.6441 8.106L13.8391 8.751L13.3636 9.228L3.98261 18.6075C3.79563 18.7945 3.69059 19.0481 3.69059 19.3125C3.69059 19.5769 3.79563 19.8305 3.98261 20.0175C4.16959 20.2045 4.42318 20.3095 4.68761 20.3095C4.95203 20.3095 5.20563 20.2045 5.39261 20.0175L14.7721 10.635L15.2491 10.158L15.8941 10.353C16.5208 10.5439 17.1895 10.5483 17.8186 10.3656C18.4477 10.1829 19.0101 9.82113 19.4371 9.32431C19.8641 8.8275 20.1372 8.21715 20.2233 7.56772C20.3093 6.9183 20.2045 6.25787 19.9216 5.667L17.6716 7.9185C17.5679 8.026 17.4438 8.11176 17.3066 8.17078C17.1693 8.22981 17.0217 8.26091 16.8723 8.26228C16.723 8.26365 16.5748 8.23525 16.4365 8.17875C16.2983 8.12225 16.1726 8.03877 16.0669 7.9332C15.9612 7.82762 15.8777 7.70205 15.821 7.56382C15.7644 7.42559 15.7359 7.27746 15.7371 7.12808C15.7383 6.97871 15.7693 6.83107 15.8282 6.69379C15.8871 6.55651 15.9727 6.43233 16.0801 6.3285L18.3301 4.0785C17.876 3.8609 17.3787 3.74962 16.8751 3.75ZM11.2501 7.125C11.2502 5.97165 11.6048 4.8462 12.266 3.90114C12.9271 2.95608 13.8627 2.23708 14.9462 1.84157C16.0296 1.44606 17.2084 1.39314 18.3229 1.69C19.4374 1.98685 20.4337 2.61912 21.1768 3.50115C21.92 4.38318 22.374 5.47232 22.4774 6.62103C22.5809 7.76974 22.3287 8.92248 21.7551 9.92307C21.1815 10.9237 20.3141 11.7237 19.2706 12.2149C18.2271 12.7061 17.0578 12.8646 15.9211 12.669L15.0916 13.5L16.5001 14.91L17.2051 14.205L18.0001 13.41L18.7951 14.205L21.6076 17.0175C21.9166 17.3172 22.1629 17.6753 22.3322 18.0711C22.5015 18.4669 22.5903 18.8923 22.5936 19.3228C22.5969 19.7532 22.5146 20.18 22.3514 20.5783C22.1882 20.9766 21.9474 21.3385 21.643 21.6429C21.3386 21.9473 20.9767 22.1881 20.5784 22.3513C20.1801 22.5145 19.7533 22.5968 19.3229 22.5935C18.8925 22.5902 18.467 22.5014 18.0712 22.3321C17.6754 22.1628 17.3173 21.9165 17.0176 21.6075L14.2051 18.795L13.4101 18L14.2051 17.205L14.9101 16.5L13.5001 15.09L6.98261 21.6075C6.68293 21.9165 6.32478 22.1628 5.92901 22.3321C5.53325 22.5014 5.10776 22.5902 4.67732 22.5935C4.24689 22.5968 3.82009 22.5145 3.42178 22.3513C3.02347 22.1881 2.6616 21.9473 2.35723 21.6429C2.05285 21.3385 1.81206 20.9766 1.64885 20.5783C1.48565 20.18 1.4033 19.7532 1.40659 19.3228C1.40988 18.8923 1.49875 18.4669 1.66803 18.0711C1.83731 17.6753 2.08361 17.3172 2.39261 17.0175L8.90861 10.5L5.25011 6.84L4.32461 7.7655L3.56411 6.624L2.06411 4.374L1.55261 3.606L2.20511 2.955L2.95511 2.205L3.60611 1.5525L4.37411 2.064L6.62411 3.564L7.76561 4.3245L6.84161 5.25L10.5001 8.91L11.3311 8.079C11.2772 7.76386 11.2501 7.44472 11.2501 7.125ZM18.0001 16.59L20.0176 18.6075C20.2046 18.7945 20.3096 19.0481 20.3096 19.3125C20.3096 19.5769 20.2046 19.8305 20.0176 20.0175C19.8306 20.2045 19.577 20.3095 19.3126 20.3095C19.0482 20.3095 18.7946 20.2045 18.6076 20.0175L16.5916 18L18.0001 16.59Z" fill="white"/>
</svg>
